<svg width="48" height="51" viewBox="0 0 48 51" fill="none" xmlns="http://www.w3.org/2000/svg">
<path d="M6.97363 38.9862L13.3379 42.6131" stroke="#F48023" stroke-width="4" stroke-miterlimit="10"/>
<path d="M14.1475 43.0745L21.4231 47.2209" stroke="#F48023" stroke-width="4" stroke-miterlimit="10"/>
<path d="M6.15097 38.5173C5.46039 38.0419 4.89591 37.4056 4.50627 36.6633C4.11663 35.921 3.91354 35.095 3.91454 34.2567L3.84424 16.8959" stroke="#F48023" stroke-width="4" stroke-miterlimit="10"/>
<path d="M6.97369 38.9862L6.15088 38.5175C6.41061 38.698 6.68598 38.8549 6.97369 38.9862V38.9862Z" stroke="#F48023" stroke-width="4" stroke-miterlimit="10"/>
<path d="M21.243 3.7096L19.915 4.48944L21.2982 3.68018C21.2794 3.69059 21.2612 3.69918 21.243 3.7096Z" stroke="#F48023" stroke-width="4" stroke-miterlimit="10"/>
<path d="M28.9861 7.51536C28.5135 3.94161 24.5213 1.83902 21.2975 3.68018L19.9144 4.48945L6.37993 12.4311C5.60344 12.8882 4.96056 13.5412 4.51559 14.3247C4.07062 15.1083 3.83915 15.9949 3.84432 16.8959L3.91463 34.2567C3.9135 35.0951 4.11653 35.9213 4.50617 36.6638C4.89582 37.4062 5.46037 38.0427 6.15105 38.5181L6.97386 38.9868" stroke="#F48023" stroke-width="4" stroke-miterlimit="10"/>
<path d="M26.2539 47.539C26.4207 47.4641 26.5835 47.3805 26.7416 47.2885L41.6157 38.5551C41.6303 38.5467 41.6438 38.5368 41.6581 38.529L26.2539 47.539Z" stroke="#F48023" stroke-width="4" stroke-miterlimit="10"/>
<path d="M21.7429 47.4031L21.4229 47.2208C21.5275 47.2851 21.6342 47.3458 21.7429 47.4031Z" stroke="#F48023" stroke-width="4" stroke-miterlimit="10"/>
<path d="M21.4229 47.2209L21.7429 47.4031C22.4338 47.7707 23.2001 47.9741 23.9824 47.9977C24.7647 48.0213 25.5419 47.8643 26.2537 47.539L41.658 38.5282C42.4229 38.0682 43.0552 37.4174 43.493 36.6395C43.9308 35.8616 44.1591 34.9834 44.1555 34.0908L44.1095 16.7233C44.0993 12.716 39.7535 10.2122 36.3139 12.2306L36.2644 12.2595C36.2644 12.264 36.2644 12.2681 36.2644 12.2723" stroke="#F48023" stroke-width="4" stroke-miterlimit="10"/>
<path d="M14.1476 43.0745L13.3384 42.6131C13.5941 42.7903 13.8649 42.9446 14.1476 43.0745Z" stroke="#F48023" stroke-width="4" stroke-miterlimit="10"/>
<path d="M36.2635 12.2595C36.2608 11.3979 36.0438 10.5504 35.6321 9.79345C35.2204 9.03649 34.6269 8.39381 33.9051 7.92326C33.1833 7.4527 32.3557 7.16906 31.497 7.09785C30.6383 7.02665 29.7753 7.17012 28.9858 7.51535" stroke="#F48023" stroke-width="4" stroke-miterlimit="10"/>
<path d="M36.361 18.5728C36.3584 18.2955 36.2568 12.7116 36.2568 12.7116C36.2568 12.5741 36.249 12.4392 36.2386 12.3069C36.1738 12.3405 36.1084 12.3744 36.0467 12.4111L31.2103 15.2487L21.2174 21.112C20.5109 21.5276 19.9143 22.1063 19.4775 22.7999C19.0408 23.4934 18.7766 24.2815 18.707 25.0982L18.7641 36.8415C18.7647 37.4812 18.9334 38.1094 19.2535 38.6633C19.5735 39.2172 20.0335 39.6772 20.5874 39.9972C21.1413 40.3172 21.7696 40.486 22.4093 40.4865C23.049 40.4871 23.6776 40.3194 24.2321 40.0004L34.3756 34.0429L34.6401 33.8866C35.1841 33.566 35.6343 33.108 35.9456 32.5587C36.257 32.0093 36.4185 31.3878 36.4141 30.7563L36.361 18.5728Z" stroke="#F48023" stroke-width="4" stroke-miterlimit="10"/>
<path d="M29.0797 13.8288C29.0771 13.5502 28.9756 7.94419 28.9756 7.94419C28.9756 7.80619 28.9677 7.67079 28.9573 7.53799C28.8922 7.57184 28.8271 7.60569 28.7646 7.64215L23.9085 10.4907L13.876 16.378C13.1667 16.7952 12.5677 17.3763 12.1292 18.0726C11.6907 18.7689 11.4254 19.5602 11.3555 20.3801L11.4128 32.1702C11.4135 32.8123 11.583 33.4429 11.9042 33.9988C12.2255 34.5548 12.6873 35.0165 13.2432 35.3377C13.7992 35.659 14.4298 35.8284 15.0719 35.8291C15.714 35.8298 16.345 35.6617 16.9016 35.3416L27.0852 29.3607L27.3508 29.2044C27.8969 28.8824 28.3488 28.4227 28.6614 27.8711C28.974 27.3195 29.1362 26.6956 29.1318 26.0616L29.0797 13.8288Z" stroke="#F48023" stroke-width="4" stroke-miterlimit="10"/>
</svg>