<svg width="24" height="31" viewBox="0 0 24 31" fill="none" xmlns="http://www.w3.org/2000/svg">
<path d="M18 15C18 13.4087 17.3679 11.8826 16.2426 10.7574C15.1174 9.63214 13.5913 9 12 9C10.4087 9 8.88258 9.63214 7.75736 10.7574C6.63214 11.8826 6 13.4087 6 15C6 22 3 24 3 24H21C21 24 18 22 18 15Z" stroke="#808080" stroke-width="2" stroke-linecap="round" stroke-linejoin="round"/>
<path d="M13.73 28C13.5542 28.3031 13.3019 28.5547 12.9982 28.7295C12.6946 28.9044 12.3504 28.9965 12 28.9965C11.6496 28.9965 11.3054 28.9044 11.0018 28.7295C10.6982 28.5547 10.4458 28.3031 10.27 28" stroke="#808080" stroke-width="2" stroke-linecap="round" stroke-linejoin="round"/>
<circle cx="16.5" cy="7.5" r="6.5" fill="#1682FD" stroke="white" stroke-width="2"/>
</svg>
